<svg width="668" height="664" viewBox="0 0 668 664" fill="none" xmlns="http://www.w3.org/2000/svg">
<path d="M398.822 561.945L399.249 562.82L408.583 560.703C433.927 554.956 469.774 540.139 495.525 524.773C521.805 509.091 552.836 483.007 572.912 459.722C627.064 396.917 646.309 322.729 633.637 225.903C632.372 216.239 629.571 199.946 626.885 185.745C625.541 178.644 624.226 172.061 623.144 167.088C622.604 164.602 622.121 162.514 621.721 160.964C621.521 160.189 621.341 159.543 621.184 159.046C621.135 158.888 621.085 158.74 621.037 158.604C621.275 158.97 621.548 159.424 621.854 159.961C622.793 161.608 624.012 163.989 625.417 166.913C628.226 172.758 631.766 180.74 635.275 189.277C659.061 247.143 670.187 306.115 666.271 353.413C657.949 453.937 616.95 537.044 548.826 591.599C530.188 606.525 513.344 617.125 490.92 628.039C434.599 655.451 371.319 667.11 307.452 661.839C228.733 655.343 153.984 622.773 101.679 572.2C53.7739 525.882 18.1529 450.645 5.58302 369.131C-5.99136 294.074 2.25233 226.82 29.7868 171.344C33.0653 164.739 38.6746 155.147 43.6047 147.339C46.0694 143.436 48.3588 139.987 50.0976 137.586C50.9688 136.383 51.6926 135.456 52.2263 134.868C52.3064 134.779 52.3804 134.701 52.4484 134.631C52.4408 134.724 52.4312 134.825 52.4198 134.934C52.3483 135.616 52.2073 136.575 52.0071 137.745C51.6071 140.082 50.9757 143.233 50.2095 146.631C30.6562 233.36 28.1188 276.721 39.4261 331.785C53.0375 398.07 82.6204 454.162 125.08 494.132C153.981 521.339 186.763 541 224.977 554.047C233.204 556.856 245.462 560.282 255.814 562.851C260.99 564.136 265.697 565.208 269.19 565.884C270.935 566.221 272.387 566.461 273.447 566.578C273.975 566.636 274.421 566.665 274.763 566.658C274.933 566.654 275.094 566.641 275.235 566.611C275.356 566.586 275.546 566.533 275.691 566.388C275.89 566.188 275.863 565.941 275.832 565.825C275.801 565.709 275.741 565.611 275.694 565.544C275.595 565.401 275.447 565.241 275.276 565.076C274.927 564.738 274.401 564.296 273.746 563.785C272.431 562.759 270.555 561.421 268.434 560.016C247.178 545.931 230.548 522.219 222.663 494.702C220.543 487.304 219.476 476.561 219.476 465.788C219.476 455.015 220.543 444.273 222.663 436.875C234.515 395.514 264.241 365.534 304.164 354.649C311.511 352.646 322.666 351.569 333.786 351.469C344.908 351.37 355.929 352.247 363.011 354.119C404.1 364.98 434.929 396.124 446.17 438.146C448.107 445.389 449.079 455.531 449.075 465.721C449.071 475.911 448.09 486.099 446.146 493.432C439.342 519.092 425.89 539.799 404.822 557.036L398.822 561.945Z" fill="#4C58A4" stroke="#4C58A4"/>
<path d="M147.932 382.278C148.018 382.391 148.128 382.433 148.147 382.441L148.148 382.442C148.184 382.456 148.214 382.463 148.228 382.466C148.258 382.472 148.284 382.475 148.296 382.477C148.324 382.48 148.354 382.481 148.379 382.482C148.433 382.484 148.505 382.485 148.591 382.486C148.765 382.487 149.018 382.485 149.345 382.48C149.999 382.471 150.957 382.451 152.184 382.422C154.64 382.363 158.181 382.267 162.545 382.139C171.271 381.885 183.288 381.508 196.488 381.071C209.688 380.633 221.745 380.277 230.537 380.055C234.933 379.945 238.512 379.868 241.009 379.831C242.258 379.812 243.234 379.804 243.905 379.807C244.099 379.807 244.265 379.809 244.405 379.811C244.321 379.978 244.199 380.189 244.037 380.446C243.554 381.209 242.765 382.29 241.7 383.646C239.572 386.354 236.377 390.117 232.423 394.537L226.81 400.813L180.369 406.702C167.547 408.328 155.789 409.807 147.174 410.88C142.867 411.416 139.345 411.851 136.87 412.152C135.633 412.302 134.657 412.419 133.976 412.498C133.635 412.538 133.369 412.568 133.181 412.588C133.107 412.596 133.049 412.602 133.006 412.606C132.946 412.543 132.863 412.439 132.758 412.285C132.536 411.956 132.259 411.465 131.945 410.839C131.321 409.592 130.576 407.86 129.866 405.948C124.876 392.509 76.3474 244.093 68.961 219.68C66.9132 212.912 65.0958 206.458 63.8176 201.512C63.1783 199.039 62.6749 196.947 62.3451 195.385C62.18 194.603 62.0596 193.959 61.9872 193.468C61.9112 192.954 61.8986 192.67 61.9132 192.568L61.9132 192.568C62.0047 191.931 62.5076 191.116 63.4279 190.257C64.3331 189.411 65.5837 188.576 67.0477 187.888C70.0177 186.493 75.4433 184.924 81.0162 183.702C86.5878 182.48 92.2316 181.622 95.6298 181.622H100.247L102.971 190.272C108.541 207.96 123.003 268.976 139.534 344.562C141.78 354.829 143.837 364.184 145.343 370.985C146.096 374.385 146.711 377.148 147.143 379.067C147.358 380.026 147.529 380.775 147.647 381.288C147.707 381.545 147.754 381.744 147.787 381.881C147.804 381.949 147.818 382.005 147.829 382.046C147.834 382.066 147.84 382.086 147.845 382.105C147.848 382.114 147.853 382.128 147.858 382.144C147.861 382.151 147.866 382.165 147.874 382.181C147.878 382.189 147.896 382.231 147.932 382.278ZM147.932 382.278L148.33 381.975M147.932 382.278C147.932 382.278 147.932 382.278 147.932 382.278L148.33 381.975M148.33 381.975C148.408 382.078 170.072 381.446 196.472 380.571C222.872 379.696 244.705 379.146 244.991 379.348C245.609 379.786 240.71 386.022 232.796 394.87L227.059 401.286L148.33 381.975ZM61.4183 192.497L61.4184 192.497L61.4183 192.497ZM61.4183 192.497L61.4183 192.497L61.4183 192.497Z" fill="#29A6DE" stroke="#29A6DE"/>
<path d="M524.682 382.817L525.104 382.838L525.195 382.425L529.534 362.828C540.788 312.001 550.438 269.784 557.793 239.06C561.47 223.698 564.573 211.211 567.016 201.959C569.464 192.691 571.239 186.707 572.26 184.318L571.8 184.122L572.26 184.318C572.957 182.687 574.79 181.706 578.46 181.622C582.11 181.539 587.381 182.353 594.616 184.085L594.732 183.599L594.616 184.085C600.285 185.441 604.504 186.873 607.295 188.366C610.127 189.882 611.305 191.359 611.305 192.734C611.305 193.413 611.032 194.935 610.461 197.323C609.895 199.687 609.052 202.844 607.944 206.755C605.728 214.576 602.455 225.395 598.23 238.875C589.781 265.835 577.529 303.43 562.321 348.963C553.371 375.758 547.986 391.59 544.566 400.746C542.854 405.328 541.642 408.216 540.728 409.965C540.27 410.842 539.9 411.407 539.596 411.751C539.287 412.1 539.101 412.161 539.016 412.167C538.89 412.178 538.453 412.157 537.673 412.092C536.916 412.029 535.883 411.928 534.602 411.794C532.042 411.526 528.506 411.124 524.249 410.619C515.737 409.608 504.35 408.186 492.143 406.595C479.936 405.004 468.724 403.51 460.494 402.384C456.379 401.821 453.01 401.351 450.635 401.006C449.448 400.834 448.511 400.694 447.854 400.589C447.525 400.537 447.269 400.494 447.088 400.461C446.998 400.445 446.929 400.431 446.881 400.421C446.866 400.417 446.855 400.415 446.847 400.413C446.834 400.405 446.807 400.388 446.763 400.356C446.698 400.309 446.615 400.242 446.513 400.154C446.308 399.977 446.047 399.731 445.734 399.421C445.11 398.802 444.3 397.95 443.37 396.937C441.511 394.914 439.185 392.27 436.925 389.628C434.665 386.985 432.474 384.349 430.884 382.34C430.088 381.335 429.448 380.493 429.026 379.889C428.936 379.761 428.858 379.645 428.791 379.543C428.797 379.542 428.802 379.542 428.808 379.542C429.263 379.529 429.925 379.524 430.774 379.526C432.471 379.53 434.898 379.565 437.878 379.624C443.837 379.743 451.994 379.96 460.907 380.232C478.734 380.775 499.578 381.537 511.898 382.165L524.682 382.817Z" fill="#29A6DE" stroke="#29A6DE"/>
<path d="M480.534 327.431L480.846 327.342L480.893 327.021L484.559 301.774C494.056 236.363 512.36 121.907 517.879 93.4137C517.966 92.9675 518.051 92.5292 518.134 92.0987C519.256 86.3 520.104 81.9204 520.948 78.6305C521.858 75.0816 522.745 72.8918 523.899 71.5729C525.015 70.2982 526.427 69.7888 528.571 69.7515C530.604 69.7161 533.213 70.1054 536.73 70.6302C536.983 70.6679 537.241 70.7063 537.503 70.7453C543.418 71.6251 548.907 72.9574 553.15 74.4502C555.272 75.1969 557.072 75.98 558.454 76.7606C559.852 77.55 560.764 78.3051 561.182 78.971C561.586 79.6131 561.843 80.7341 561.744 83.0432C561.645 85.3354 561.203 88.7084 560.302 93.7757C558.501 103.905 554.885 120.719 548.599 149.013C533.038 219.055 532.245 222.51 513.966 299.673C512.575 305.545 511.328 310.82 510.208 315.56C505.247 336.559 502.772 347.036 501.225 352.215C500.751 353.8 500.371 354.866 500.041 355.578C499.705 356.301 499.451 356.589 499.268 356.708C499.117 356.805 498.961 356.824 498.643 356.778C498.573 356.768 498.492 356.754 498.402 356.739C498.114 356.689 497.735 356.623 497.324 356.623C495.362 356.624 475.146 358.124 452.432 359.951C441.065 360.866 430.732 361.693 423.241 362.289C419.495 362.587 416.46 362.828 414.361 362.992C413.312 363.074 412.497 363.138 411.944 363.18C411.671 363.201 411.463 363.216 411.323 363.226C411.225 363.137 411.083 363.01 410.903 362.848C410.536 362.517 410.005 362.042 409.35 361.458C408.041 360.29 406.235 358.683 404.249 356.921L403.917 357.295L404.249 356.921C402.236 355.134 400.605 353.459 399.579 352.181C399.062 351.537 398.719 351.019 398.551 350.653C398.5 350.543 398.472 350.461 398.458 350.404C398.466 350.4 398.476 350.396 398.486 350.392C398.578 350.354 398.704 350.307 398.862 350.251C399.179 350.138 399.615 349.993 400.162 349.818C401.255 349.469 402.78 349.004 404.663 348.444C408.427 347.326 413.612 345.833 419.615 344.135C431.621 340.741 446.893 336.532 460.601 332.873C467.2 331.111 474.387 329.166 476.571 328.549L480.534 327.431Z" fill="#E83338" stroke="#E83338"/>
<path d="M110.887 82.2505C110.51 82.6134 110.246 82.964 110.067 83.4075C109.885 83.8575 109.777 84.4361 109.762 85.272C109.733 86.9621 110.084 89.5692 110.821 94.0178C113.829 112.154 136.547 213.477 154.243 287.672C157.479 301.239 162.34 321.639 165.045 333.006C166.397 338.686 167.722 343.956 168.767 347.87C169.29 349.828 169.741 351.443 170.091 352.599C170.266 353.178 170.414 353.637 170.531 353.964C170.59 354.128 170.639 354.253 170.678 354.34C170.681 354.347 170.684 354.354 170.687 354.36C170.705 354.365 170.727 354.371 170.752 354.378C170.896 354.416 171.11 354.462 171.396 354.513C171.966 354.616 172.786 354.739 173.833 354.878C175.924 355.155 178.898 355.494 182.536 355.872C189.811 356.628 199.73 357.54 210.538 358.424C232.166 360.195 251.572 361.711 253.676 361.798C254.901 361.848 256.316 361.492 258.054 360.616C259.793 359.741 261.826 358.36 264.28 356.398C266.221 354.845 267.991 353.33 269.276 352.141C269.919 351.546 270.435 351.038 270.789 350.652C270.967 350.458 271.096 350.303 271.179 350.189C271.182 350.185 271.185 350.181 271.187 350.177C271.151 350.145 271.101 350.107 271.031 350.06C270.763 349.88 270.307 349.651 269.599 349.362C268.191 348.786 265.888 348.014 262.348 346.943C255.273 344.803 243.32 341.493 223.85 336.213C215.277 333.889 207.308 331.601 201.373 329.786C198.406 328.879 195.944 328.09 194.168 327.472C193.28 327.163 192.558 326.896 192.028 326.677C191.763 326.567 191.539 326.467 191.363 326.378C191.205 326.297 191.032 326.199 190.917 326.084C190.799 325.965 190.709 325.8 190.64 325.653C190.565 325.493 190.488 325.295 190.41 325.067C190.253 324.611 190.079 324.001 189.89 323.263C189.512 321.786 189.069 319.758 188.59 317.33C187.632 312.472 186.525 305.991 185.5 299.056C169.929 193.722 154.156 97.6526 149.184 77.8418L148.378 74.6307L137.313 75.3023L137.283 74.8033L137.313 75.3023C131.475 75.6566 125.685 76.5955 120.931 77.8551C118.555 78.4849 116.446 79.1928 114.723 79.944C112.993 80.6987 111.687 81.4827 110.887 82.2505ZM110.887 82.2505L110.542 81.8908L110.887 82.2505Z" fill="#E83338" stroke="#E83338"/>
<path d="M331.652 65.6297L331.987 65.9011L332.305 65.61L339.891 58.6604C371.897 29.3383 413.679 9.46973 456.871 3.03383C463.864 1.99186 474.134 1.15582 482.762 0.755887C487.075 0.555953 490.968 0.465459 493.829 0.511987C495.261 0.535283 496.423 0.592789 497.245 0.685903C497.659 0.732701 497.969 0.786656 498.179 0.844059C498.237 0.859999 498.282 0.87486 498.317 0.887804C498.317 0.888002 498.317 0.8882 498.317 0.888398C498.327 0.986047 498.334 1.1269 498.336 1.31469C498.339 1.68853 498.322 2.2113 498.285 2.87116C498.212 4.18876 498.061 6.02323 497.845 8.24335C497.413 12.682 496.724 18.6439 495.88 25.0565C489.736 71.7308 477.594 162.181 473.954 188.386C473.241 193.522 469.922 218.424 466.578 243.723C463.234 269.024 459.78 294.798 458.904 301.001L457.35 312.002L448.945 315.545C444.185 317.552 433.089 321.99 424.291 325.407C415.489 328.825 400.479 334.762 390.933 338.601C382.444 342.014 378.122 343.726 375.27 344.372C373.862 344.691 372.839 344.743 371.865 344.617C370.878 344.489 369.917 344.176 368.617 343.725C357.591 339.894 339.557 337.619 326.744 338.435C315.727 339.136 301.124 342.888 290.146 347.832C289.114 348.298 287.821 347.965 286.894 346.848C286.32 346.156 285.192 345.303 283.677 344.338C282.145 343.363 280.168 342.243 277.847 341.022C273.205 338.581 267.164 335.723 260.516 332.796C247.223 326.944 231.473 320.805 219.579 317.16C219 316.983 218.469 316.826 217.979 316.681C216.581 316.268 215.522 315.956 214.663 315.552C213.556 315.031 212.83 314.378 212.247 313.146C211.644 311.874 211.195 309.985 210.707 306.98C210.345 304.75 209.966 301.939 209.484 298.357C209.318 297.127 209.14 295.807 208.947 294.387C207.796 285.951 204.214 261.348 200.989 239.715C195.015 199.645 193.393 188.652 184.264 126.382C181.414 106.949 176.657 74.5741 173.691 54.4381C170.594 33.4091 168.999 22.0086 168.622 15.4152C168.433 12.1171 168.553 10.0713 168.92 8.64349C169.279 7.24713 169.88 6.42136 170.73 5.57131C172.583 3.7175 175.609 2.51902 179.664 1.96397C183.709 1.41028 188.714 1.50562 194.452 2.18C205.927 3.52852 220.256 7.18279 235.542 12.4921C266.116 23.1118 300.423 40.3197 323.238 58.8104L331.652 65.6297ZM498.397 0.924758C498.397 0.924788 498.395 0.923738 498.392 0.921494C498.396 0.923601 498.397 0.924727 498.397 0.924758ZM498.302 0.789423C498.302 0.787356 498.301 0.786089 498.301 0.785729C498.301 0.785247 498.302 0.786392 498.302 0.789423Z" fill="#FFF112" stroke="#FFF112"/>
<path d="M224.809 163.535V173.238H225.283C226.795 173.238 227.891 172.764 228.57 171.814C229.25 170.865 229.684 169.465 229.871 167.613H230.539V180.094H229.871C229.73 178.734 229.432 177.621 228.975 176.754C228.529 175.887 228.008 175.307 227.41 175.014C226.812 174.709 225.945 174.557 224.809 174.557V181.271C224.809 182.584 224.861 183.387 224.967 183.68C225.084 183.973 225.295 184.213 225.6 184.4C225.904 184.588 226.396 184.682 227.076 184.682H228.5C230.727 184.682 232.508 184.166 233.844 183.135C235.191 182.104 236.158 180.533 236.744 178.424H237.395L236.322 186H215.721V185.35H216.512C217.203 185.35 217.76 185.227 218.182 184.98C218.486 184.816 218.721 184.535 218.885 184.137C219.014 183.855 219.078 183.117 219.078 181.922V166.242C219.078 165.164 219.049 164.502 218.99 164.256C218.873 163.846 218.656 163.529 218.34 163.307C217.895 162.979 217.285 162.814 216.512 162.814H215.721V162.164H235.672V169.213H235.004C234.664 167.49 234.184 166.254 233.562 165.504C232.953 164.754 232.086 164.203 230.961 163.852C230.305 163.641 229.074 163.535 227.27 163.535H224.809ZM254.922 161.619L255.115 169.564H254.395C254.055 167.572 253.217 165.973 251.881 164.766C250.557 163.547 249.121 162.938 247.574 162.938C246.379 162.938 245.43 163.26 244.727 163.904C244.035 164.537 243.689 165.27 243.689 166.102C243.689 166.629 243.812 167.098 244.059 167.508C244.398 168.059 244.943 168.604 245.693 169.143C246.244 169.529 247.516 170.215 249.508 171.199C252.297 172.57 254.178 173.865 255.15 175.084C256.111 176.303 256.592 177.697 256.592 179.268C256.592 181.26 255.812 182.977 254.254 184.418C252.707 185.848 250.738 186.562 248.348 186.562C247.598 186.562 246.889 186.486 246.221 186.334C245.553 186.182 244.715 185.895 243.707 185.473C243.145 185.238 242.682 185.121 242.318 185.121C242.014 185.121 241.691 185.238 241.352 185.473C241.012 185.707 240.736 186.064 240.525 186.545H239.875V177.545H240.525C241.041 180.076 242.031 182.01 243.496 183.346C244.973 184.67 246.561 185.332 248.26 185.332C249.572 185.332 250.615 184.975 251.389 184.26C252.174 183.545 252.566 182.713 252.566 181.764C252.566 181.201 252.414 180.656 252.109 180.129C251.816 179.602 251.365 179.104 250.756 178.635C250.146 178.154 249.068 177.533 247.521 176.771C245.354 175.705 243.795 174.797 242.846 174.047C241.896 173.297 241.164 172.459 240.648 171.533C240.145 170.607 239.893 169.588 239.893 168.475C239.893 166.576 240.59 164.959 241.984 163.623C243.379 162.287 245.137 161.619 247.258 161.619C248.031 161.619 248.781 161.713 249.508 161.9C250.059 162.041 250.727 162.305 251.512 162.691C252.309 163.066 252.865 163.254 253.182 163.254C253.486 163.254 253.727 163.16 253.902 162.973C254.078 162.785 254.242 162.334 254.395 161.619H254.922ZM266.771 175.207V181.816C266.771 183.105 266.848 183.92 267 184.26C267.164 184.588 267.445 184.852 267.844 185.051C268.254 185.25 268.998 185.35 270.076 185.35V186H257.965V185.35C259.066 185.35 259.811 185.25 260.197 185.051C260.596 184.84 260.871 184.57 261.023 184.242C261.188 183.914 261.27 183.105 261.27 181.816V166.348C261.27 165.059 261.188 164.25 261.023 163.922C260.871 163.582 260.596 163.312 260.197 163.113C259.799 162.914 259.055 162.814 257.965 162.814V162.164H268.354C271.775 162.164 274.23 162.773 275.719 163.992C277.207 165.211 277.951 166.734 277.951 168.562C277.951 170.109 277.471 171.434 276.51 172.535C275.549 173.637 274.225 174.387 272.537 174.785C271.4 175.066 269.479 175.207 266.771 175.207ZM266.771 163.535V173.836C267.158 173.859 267.451 173.871 267.65 173.871C269.08 173.871 270.182 173.449 270.955 172.605C271.729 171.75 272.115 170.432 272.115 168.65C272.115 166.881 271.729 165.586 270.955 164.766C270.182 163.945 269.027 163.535 267.492 163.535H266.771ZM287.867 163.535V173.238H288.342C289.854 173.238 290.949 172.764 291.629 171.814C292.309 170.865 292.742 169.465 292.93 167.613H293.598V180.094H292.93C292.789 178.734 292.49 177.621 292.033 176.754C291.588 175.887 291.066 175.307 290.469 175.014C289.871 174.709 289.004 174.557 287.867 174.557V181.271C287.867 182.584 287.92 183.387 288.025 183.68C288.143 183.973 288.354 184.213 288.658 184.4C288.963 184.588 289.455 184.682 290.135 184.682H291.559C293.785 184.682 295.566 184.166 296.902 183.135C298.25 182.104 299.217 180.533 299.803 178.424H300.453L299.381 186H278.779V185.35H279.57C280.262 185.35 280.818 185.227 281.24 184.98C281.545 184.816 281.779 184.535 281.943 184.137C282.072 183.855 282.137 183.117 282.137 181.922V166.242C282.137 165.164 282.107 164.502 282.049 164.256C281.932 163.846 281.715 163.529 281.398 163.307C280.953 162.979 280.344 162.814 279.57 162.814H278.779V162.164H298.73V169.213H298.062C297.723 167.49 297.242 166.254 296.621 165.504C296.012 164.754 295.145 164.203 294.02 163.852C293.363 163.641 292.133 163.535 290.328 163.535H287.867ZM325.1 161.619V169.881H324.414C323.898 167.725 322.938 166.072 321.531 164.924C320.125 163.775 318.531 163.201 316.75 163.201C315.262 163.201 313.896 163.629 312.654 164.484C311.412 165.34 310.504 166.459 309.93 167.842C309.191 169.611 308.822 171.58 308.822 173.748C308.822 175.881 309.092 177.826 309.631 179.584C310.17 181.33 311.014 182.654 312.162 183.557C313.311 184.447 314.799 184.893 316.627 184.893C318.127 184.893 319.498 184.564 320.74 183.908C321.994 183.252 323.312 182.121 324.695 180.516V182.572C323.359 183.967 321.965 184.98 320.512 185.613C319.07 186.234 317.383 186.545 315.449 186.545C312.906 186.545 310.645 186.035 308.664 185.016C306.695 183.996 305.172 182.531 304.094 180.621C303.027 178.711 302.494 176.678 302.494 174.521C302.494 172.248 303.086 170.092 304.27 168.053C305.465 166.014 307.07 164.432 309.086 163.307C311.113 162.182 313.264 161.619 315.537 161.619C317.213 161.619 318.982 161.982 320.846 162.709C321.924 163.131 322.609 163.342 322.902 163.342C323.277 163.342 323.6 163.207 323.869 162.938C324.15 162.656 324.332 162.217 324.414 161.619H325.1ZM339.27 185.35V186H326.807V185.35H327.598C328.289 185.35 328.846 185.227 329.268 184.98C329.572 184.816 329.807 184.535 329.971 184.137C330.1 183.855 330.164 183.117 330.164 181.922V166.242C330.164 165.023 330.1 164.262 329.971 163.957C329.842 163.652 329.578 163.389 329.18 163.166C328.793 162.932 328.266 162.814 327.598 162.814H326.807V162.164H339.27V162.814H338.479C337.787 162.814 337.23 162.938 336.809 163.184C336.504 163.348 336.264 163.629 336.088 164.027C335.959 164.309 335.895 165.047 335.895 166.242V181.922C335.895 183.141 335.959 183.902 336.088 184.207C336.229 184.512 336.492 184.781 336.879 185.016C337.277 185.238 337.811 185.35 338.479 185.35H339.27ZM354.09 179.215H345.67L344.668 181.535C344.34 182.309 344.176 182.947 344.176 183.451C344.176 184.119 344.445 184.611 344.984 184.928C345.301 185.115 346.08 185.256 347.322 185.35V186H339.395V185.35C340.25 185.221 340.953 184.869 341.504 184.295C342.055 183.709 342.734 182.508 343.543 180.691L352.068 161.672H352.402L360.998 181.219C361.818 183.07 362.492 184.236 363.02 184.717C363.418 185.08 363.98 185.291 364.707 185.35V186H353.176V185.35H353.65C354.576 185.35 355.227 185.221 355.602 184.963C355.859 184.775 355.988 184.506 355.988 184.154C355.988 183.943 355.953 183.727 355.883 183.504C355.859 183.398 355.684 182.959 355.355 182.186L354.09 179.215ZM353.492 177.914L349.941 169.705L346.285 177.914H353.492ZM386.857 177.633L385.961 186H364.797V185.35H365.588C366.279 185.35 366.836 185.227 367.258 184.98C367.562 184.816 367.797 184.535 367.961 184.137C368.09 183.855 368.154 183.117 368.154 181.922V166.242C368.154 165.023 368.09 164.262 367.961 163.957C367.832 163.652 367.568 163.389 367.17 163.166C366.783 162.932 366.256 162.814 365.588 162.814H364.797V162.164H377.506V162.814H376.469C375.777 162.814 375.221 162.938 374.799 163.184C374.494 163.348 374.254 163.629 374.078 164.027C373.949 164.309 373.885 165.047 373.885 166.242V181.43C373.885 182.648 373.955 183.428 374.096 183.768C374.236 184.096 374.512 184.342 374.922 184.506C375.215 184.611 375.924 184.664 377.049 184.664H379.035C380.301 184.664 381.355 184.441 382.199 183.996C383.043 183.551 383.77 182.848 384.379 181.887C385 180.926 385.586 179.508 386.137 177.633H386.857ZM400.324 185.35V186H387.861V185.35H388.652C389.344 185.35 389.9 185.227 390.322 184.98C390.627 184.816 390.861 184.535 391.025 184.137C391.154 183.855 391.219 183.117 391.219 181.922V166.242C391.219 165.023 391.154 164.262 391.025 163.957C390.896 163.652 390.633 163.389 390.234 163.166C389.848 162.932 389.32 162.814 388.652 162.814H387.861V162.164H400.324V162.814H399.533C398.842 162.814 398.285 162.938 397.863 163.184C397.559 163.348 397.318 163.629 397.143 164.027C397.014 164.309 396.949 165.047 396.949 166.242V181.922C396.949 183.141 397.014 183.902 397.143 184.207C397.283 184.512 397.547 184.781 397.934 185.016C398.332 185.238 398.865 185.35 399.533 185.35H400.324ZM422.141 162.164L408.131 184.664H412.666C414.811 184.664 416.311 184.529 417.166 184.26C418.561 183.838 419.762 183.064 420.77 181.939C421.777 180.803 422.475 179.285 422.861 177.387H423.547L422.58 186H400.748L414.775 163.465H411.242C409.871 163.465 408.969 163.506 408.535 163.588C407.715 163.74 406.941 164.045 406.215 164.502C405.5 164.947 404.902 165.545 404.422 166.295C403.953 167.045 403.584 167.994 403.314 169.143H402.664L403.314 162.164H422.141ZM438.156 179.215H429.736L428.734 181.535C428.406 182.309 428.242 182.947 428.242 183.451C428.242 184.119 428.512 184.611 429.051 184.928C429.367 185.115 430.146 185.256 431.389 185.35V186H423.461V185.35C424.316 185.221 425.02 184.869 425.57 184.295C426.121 183.709 426.801 182.508 427.609 180.691L436.135 161.672H436.469L445.064 181.219C445.885 183.07 446.559 184.236 447.086 184.717C447.484 185.08 448.047 185.291 448.773 185.35V186H437.242V185.35H437.717C438.643 185.35 439.293 185.221 439.668 184.963C439.926 184.775 440.055 184.506 440.055 184.154C440.055 183.943 440.02 183.727 439.949 183.504C439.926 183.398 439.75 182.959 439.422 182.186L438.156 179.215ZM437.559 177.914L434.008 169.705L430.352 177.914H437.559Z" fill="#4D57A7"/>
</svg>
